<?xml version="1.0" encoding="utf-8"?>
<!-- Generator: Adobe Illustrator 28.3.0, SVG Export Plug-In . SVG Version: 6.00 Build 0)  -->
<svg version="1.1" id="Слой_2" xmlns="http://www.w3.org/2000/svg" xmlns:xlink="http://www.w3.org/1999/xlink" x="0px" y="0px"
	 viewBox="0 0 512 512" style="enable-background:new 0 0 512 512;" xml:space="preserve">
<style type="text/css">
	.st0{fill:#E2EBED;}
	.st1{fill:#FFFFFF;}
	.st2{fill:#154728;}
	.st3{fill:#E1EAED;}
	.st4{fill:#144226;}
	.st5{fill:#144025;}
	.st6{fill:#97C11F;}
	.st7{fill:#68A53D;}
	.st8{fill:#C0E2F4;}
	.st9{fill:#C2E3F5;}
	.st10{fill:#DFEAEB;}
	.st11{fill:#FCFDFD;}
	.st12{fill:#DA403B;}
	.st13{fill:#E1EAEC;}
	.st14{fill:#9AD1EE;}
	.st15{fill:#C7E6F3;}
	.st16{fill:#DAEAEB;}
	.st17{fill:#DFEAEC;}
	.st18{fill:#113F23;}
	.st19{fill:#E0EBEB;}
	.st20{fill:#DA463B;}
	.st21{fill:#C6E5F1;}
	.st22{fill:#93C4CD;}
	.st23{fill:#E0EBEC;}
	.st24{fill:#E7C980;}
	.st25{fill:#862F25;}
	.st26{fill:#F0D491;}
	.st27{fill:#C4E4F2;}
	.st28{fill:#FDFFFD;}
	.st29{fill:#862E25;}
	.st30{fill:#61BCE7;}
	.st31{fill:#6CAA34;}
	.st32{fill:#32492F;}
	.st33{fill:#FDFDFD;}
	.st34{fill:#E0EAEB;}
	.st35{fill:#B55845;}
	.st36{fill:#FCFDFC;}
	.st37{fill:#FCFCFC;}
	.st38{fill:#FAFCFD;}
	.st39{fill:#EFC984;}
	.st40{fill:#D65B4D;}
	.st41{fill:#F7FAF8;}
	.st42{fill:#F4F8F5;}
	.st43{fill:#F3F8F5;}
	.st44{fill:#C7DDD9;}
	.st45{fill:#8DACAC;}
	.st46{fill:#338E44;}
	.st47{fill:#65654D;}
	.st48{fill:#154528;}
	.st49{fill:#164528;}
	.st50{fill:#144227;}
	.st51{fill:#154428;}
	.st52{fill:#144326;}
	.st53{fill:#17472A;}
	.st54{fill:#16462A;}
	.st55{fill:#144729;}
	.st56{fill:#144929;}
	.st57{fill:#FDEEED;}
	.st58{fill:#DC423C;}
	.st59{fill:#154225;}
	.st60{fill:#F5F9F7;}
	.st61{fill:#F5F8F6;}
</style>
<g>
	<path class="st0" d="M242.47,0.44c9.8,0,19.6,0,29.39,0c3.84,0.6,7.73,0.47,11.59,0.67c8.33,0.43,16.46,2.06,24.6,3.66
		c16.26,3.2,31.96,8.18,47.29,14.51c17.9,7.4,34.63,16.82,50.37,28.01c13.35,9.49,25.77,20.14,37.02,32.07
		c17.66,18.72,32.14,39.67,43.59,62.75c11.99,24.16,19.72,49.61,23.66,76.24c1.05,7.06,1.68,14.15,1.76,21.29
		c0.01,0.48-0.14,1,0.25,1.42c0,9.3,0,18.6,0,27.9c-0.56,4.18-0.36,8.4-0.69,12.59c-0.67,8.54-2.18,16.95-3.78,25.34
		c-2.25,11.77-5.44,23.3-9.47,34.55c-6.08,17-13.75,33.24-23.29,48.63c-11.84,19.11-25.87,36.39-42.21,51.75
		c-13.45,12.65-28.15,23.73-44.01,33.25c-15.95,9.57-32.73,17.29-50.33,23.2c-16.17,5.43-32.74,9.14-49.7,11.17
		c-15.22,1.82-30.48,1.56-45.73,1.3c-18.34-0.3-36.26-3.74-53.94-8.49c-10.84-2.91-21.44-6.56-31.74-10.96
		c-11.07-4.72-21.76-10.25-32.11-16.44c-13.44-8.04-26-17.28-37.74-27.58c-11.81-10.37-22.49-21.82-32.17-34.24
		c-9.99-12.82-18.58-26.47-25.97-40.93c-10.53-20.6-18.14-42.22-22.72-64.89C3.72,293.96,1.79,280.6,1.78,267
		c0-3.97-0.15-7.95-0.19-11.93c-0.52-21.13,2.24-41.88,7.32-62.33c6.44-25.9,16.85-50.11,30.98-72.76
		c7.67-12.29,16.29-23.84,25.85-34.68c11.79-13.36,25.02-25.16,39.37-35.73c13.27-9.79,27.35-18.23,42.23-25.28
		c13.82-6.55,28.12-11.84,42.93-15.8c10.53-2.81,21.13-5.1,31.92-6.54c5.92-0.79,11.88-0.98,17.84-1.25
		C240.86,0.65,241.71,0.95,242.47,0.44z"/>
	<path class="st1" d="M279.65,492.56c-151.6,0.76-261.41-104.54-258.77-240.61c1.25-64.58,26.08-119.73,72.02-164.63
		c47.78-46.7,105.88-69.22,172.81-66.81c63.3,2.28,117.28,26.87,161,72.51c43.58,45.5,66.37,100.31,66.45,163.44
		c0.08,60.19-19.88,113.64-60.61,158.19C385.79,465.8,327.08,491.57,279.65,492.56z"/>
	<path class="st1" d="M488.29,374.45c-0.19-1.1-0.49-1.89,0.2-2.55c0.08-0.08,0.55,0.04,0.6,0.16
		C489.46,372.98,489.08,373.64,488.29,374.45z"/>
	<path class="st2" d="M259.47,411.34c-3.02-11.26-6.19-22.48-10.44-33.36c-0.78-2.01-1.92-3.84-3.12-5.63
		c-0.61-0.91-0.93-1-1.8-0.16c-3.24,3.07-11.49,4.01-15.43,1.88c-2.09-1.13-3.84-2.93-3.83-5.18c0.01-4.12-2.08-6.34-5.7-7.81
		c-0.45,3.22,0.29,6.82-2,9.72c-1.35,0.65-2.44,1.51-3.28,2.84c-1.29,2.06-3.31,2.6-5.36,1.51c-2.42-1.29-4.96-1.66-7.66-1.65
		c-31.92,0.03-63.85,0.04-95.77-0.01c-1.61,0-3.56,0.68-4.69-1.29c0.94-1.18,2.28-0.8,3.47-0.81c11.7-0.04,23.4,0.1,35.1-0.06
		c21.32-0.28,42.65-0.04,63.97-0.14c1,0,1.99,0.01,2.99-0.08c3.84-0.35,6.43-2.67,6.62-6.49c0.31-6.55,0.16-13.11,0.07-19.66
		c-0.02-1.12-0.53-1.87-1.48-2.41c-0.51-0.29-1-0.59-1.53-0.84c-4.37-2.05-8.58-4.34-12.01-7.84c-4.35-4.19-7.1-9.21-7.28-15.32
		c-0.07-2.4-0.86-4.1-2.81-5.43c-1.43-0.99-2.65-2.24-3.81-3.55c-2.51-2.82-3.26-6.07-2.75-9.72c0.35-2.53,0.34-2.55-2.29-2.56
		c-4.48-0.01-8.97,0-13.45,0c-0.83,0-1.66,0.01-2.49-0.03c-3.15-0.17-4.7-1.4-4.66-3.68c0.04-2.25,1.59-3.41,4.78-3.57
		c0.33-0.02,0.66-0.02,1-0.02c9.55-0.01,19.09,0.03,28.64-0.02c2.81-0.01,5.11,0.58,6.16,3.53c0.34,0.96,1.2,1.35,2.09,1.62
		c3.18,0.98,6.42,1.7,9.65,2.46c1.46,0.34,2.24-0.13,2.26-1.7c0.01-0.83,0.04-1.66,0.04-2.49c0-21.42,0-42.84,0-64.26
		c0-0.75,0-1.49-0.02-2.24c-0.18-5.91-2.57-8.3-8.43-8.31c-33.54-0.02-67.08-0.02-100.62,0c-6.34,0-8.66,2.32-8.66,8.77
		c-0.03,31.21-0.01,62.43-0.01,93.64c0,12.87,0.04,25.74-0.03,38.6c-0.02,3.6,0.03,7.14,1.89,10.37c0.04,3.43-0.53,4.23-3.3,4.69
		c-2.56-1.74-3.51-4.52-4.69-7.36c-1.59,2.29-2.31,4.89-3.42,7.28c-0.76,1.64-1.77,2.87-3.68,2.81c-1.72-0.05-2.54-1.28-3.17-2.75
		c-2.53-5.94-5.08-11.87-7.69-17.78c-0.62-1.41-0.87-2.81-0.87-4.33c0.02-31.96,0.01-63.93,0.04-95.89
		c0.01-6.83,3.39-10.16,10.3-10.16c2.47,0,4.97-0.36,7.41,0.44c1.54,0.5,1.08-0.79,1.08-1.48c0.02-6.23,0.01-12.45-0.01-18.68
		c-0.01-2.86,0.29-5.68,1.85-8.15c2.53-4,6.13-6.09,10.99-6.08c23.25,0.05,46.49,0.04,69.74,0.06c3.29,0,3.29,0.01,3.29-3.26
		c0.01-31.22-0.02-62.43,0.06-93.65c0.03-10.35,7.12-19.82,16.71-22.26c4.16-1.06,8.48-1.48,12.73-2.19
		c2.48,0.14,4.91-0.37,7.32-0.81c0.85-0.15,1.62-0.21,2.42,0.01c1.15,0.32,2.34,0.77,2.44,2.13c0.09,1.3-1.04,1.75-2.1,2.09
		c-0.24,0.08-0.44,0.2-0.57,0.44c-0.87,0.95-2.1,0.9-3.22,1.11c-4.48,0.83-8.96,1.7-13.49,2.23c-7.08,0.82-11.89,4.6-14.85,10.95
		c-0.84,3.05-1.44,6.14-1.44,9.31c-0.01,29.71-0.01,59.41,0,89.12c0,3.85,0.11,3.94,3.87,3.96c4.56,0.02,9.13-0.08,13.69,0.03
		c5.8,0.13,11.86-1.17,16.95,3c0.72-1.31,0.47-2.41,0.47-3.46c0.02-33.52,0.02-67.05,0-100.57c0-2.25,0.04-4.47,0.71-6.64
		c0.43-2.08,0.59-4.28,2.53-5.69c0.41-0.05,0.81,0.09,1.21,0.06c3.55-0.23,3.56-0.23,3.87,3.38c-1.01,3.3-0.98,6.69-0.98,10.09
		c0.02,16.32,0.02,32.63,0,48.95c0,1.47,0.25,3-0.72,4.32c-1.83,0.22-1.2-1.24-1.16-1.97c0.48-8.61,0.12-17.23,0.19-25.84
		c0.07-8.78,0.11-17.56-0.22-23.99c0.46,13.24,0.14,28.83,0.24,44.43c0.02,2.41-0.1,4.8-0.48,7.17c-0.46,2.9-0.39,5.77,0.24,8.38
		c-0.09-0.96-0.73-2.28,0.74-3.16c0.31,0.09,0.54,0.28,0.69,0.56c0.85,3.77,0.5,7.59,0.25,11.38c-0.13,1.99-0.3,3.97-0.3,5.96
		c0,31.86,0.03,63.72-0.03,95.57c-0.01,4.31,0,8.62,0.04,12.93c0.01,0.75,0,1.5,0.1,2.24c0.08,0.57,0.13,1.34,0.9,1.22
		c0.74-0.11,0.56-0.9,0.57-1.45c0.03-1.02-0.33-1.97-0.66-2.9c-1.82-4.99-1.2-9.78,1.02-14.48c1.67-3.53,3.46-6.99,5.78-10.14
		c3.36-4.09,6.54-8.16,8.07-13.49c1.61-5.58,4.81-10.51,8.34-15.11c-0.56-0.99-1.4-0.66-2.07-0.66c-3.65-0.04-7.3-0.01-10.94-0.03
		c-1.15-0.01-2.33,0.07-3.4-0.55c-1.63-1.51-1.8-3.07-0.16-4.69c1.71-1.12,3.65-0.86,5.54-0.9c3.4-0.07,3.51-0.13,3.52-3.47
		c0.03-9.83,0.08-19.67-0.03-29.5c-0.04-3.37,0.73-6.36,2.75-9.05c0.72-1.3,1.46-2.6,2.3-3.83c1.45-2.12,2.09-4.4,2.06-7
		c-0.05-4.28,1.3-5.69,5.6-5.83c5.79-0.19,11.59-0.14,17.39-0.02c3.58,0.07,5.1,1.49,5,5.03c-0.12,4.48,2.39,7.81,4.35,11.42
		c2.04,2.96,2.84,6.2,2.75,9.83c-0.16,6.94-0.07,13.89-0.04,20.83c0.01,3.01,0.17,3.18,3.02,3.86c1.69,0.4,3.36,0.85,5.04,1.26
		c1.53-0.51,3.13-0.75,4.66-1.25c6.57-1.65,13.18-3.01,19.99-3.08c0.95-0.01,1.79-0.22,2.55-0.77c2.03-1.28,2.26-3.59,3.01-5.54
		c1.62-4.23,3.71-8.32,4.08-12.96c0.09-1.13,1.04-1.63,1.92-2.11c2.01-2.72,3.99-5.47,6.05-8.15c1.93-2.51,4.1-4.75,6.89-6.32
		c2.82-0.76,3.58-2.69,3.37-5.43c-0.18-2.38-0.07-4.79-0.02-7.19c0.02-0.91,0.03-1.83,0.66-2.59c0.23-0.17,0.49-0.19,0.75-0.07
		c1.38,2.66,0.77,5.49,0.5,8.24c-0.1,1.04-0.34,2.09-0.33,3.06c0.25-0.75-0.59-2.19,0.65-2.42c1.73-0.31,2.21,1.31,2.77,2.73
		c-0.06-3.57-0.11-7.02,0.02-10.46c0.04-0.99-0.38-2.48,1.42-2.62c0.83,0.97,0.7,2.15,0.72,3.29c0.04,2.79,0.11,5.59-0.02,8.37
		c-0.1,2.19,0.5,3.68,2.85,4.03c7.58,3.27,11.26,8.37,11,15.65c-0.25,6.97-3.99,11.67-10.14,14.62c-3.74,1.46-3.74,1.46-3.75,5.47
		c0,2.06,0.23,4.16-0.05,6.18c-0.54,3.91,1.33,6.03,4.74,7.23c6.01-0.83,12.07-0.05,18.1-0.48c0.08-0.88-0.54-1.27-0.93-1.76
		c-5.35-6.83-8.21-14.52-8-23.26c0.18-7.5,3.28-13.27,10.21-16.6c1.39-0.67,1.37-1.32,0.72-2.48c-1.42-2.5-2.18-5.2-1.9-8.11
		c0.22-2.28,1.18-3.29,3.49-3.42c4.98-0.27,9.09,1.68,12.29,5.38c1.17,1.35,1.78,1.62,2.93,0.09c1.25-1.65,2.75-3.11,4.55-4.2
		c2.07-1.25,3.92-1.12,4.92,0.31c1.12,1.59,0.62,3.38-1.55,4.75c-2.66,1.68-4.32,4.01-5.29,7.18c1.41,0.25,2.54-0.37,3.72-0.51
		c9.48-1.14,16.91,4.23,18.65,13.84c1.8,9.93-1.44,18.62-7.2,26.57c-0.37,0.52-1.05,0.83-1.1,1.73c3.22,0.24,6.43,0.06,9.64,0.11
		c1.84,0.03,3.46,0.44,4.39,2.24c0.19,0.54,0.2,1.08,0.03,1.62c-0.97,2.17-2.93,2.12-4.86,2.22c-16.99,0.81-34,0.41-51,0.51
		c-1.21,0.01-2.46-0.21-3.8,0.29c2.21,2.39,4.79,4.21,7.03,6.41c0.56,0.55,1.3,0.71,2.07,0.68c9.92-0.41,18.7,3.12,27.11,7.88
		c3.24,1.83,3.24,1.87,6.21-0.46c3.06-2.4,6.49-4,10.32-4.7c3.83-0.7,5.71,1.27,4.95,5.11c-0.52,2.62-1.35,5.13-2.49,7.55
		c-1.09,2.32-1.13,4.59-0.03,6.95c1.05,2.25,1.92,4.6,2.53,7.02c1.17,4.65-0.87,6.79-5.49,5.73c-3.78-0.87-7.23-2.53-10.16-5.05
		c-1.78-1.53-3.26-1.62-5.05-0.21c-0.91,0.72-1.98,1.21-3.05,1.68c-1.72,0.76-2.01,1.84-1.31,3.58c1.82,4.46,3.32,9.03,4.13,13.8
		c0.39,2.29,0.92,4.56,0.88,6.9c-0.03,1.63,0.73,2.42,2.32,2.62c3.71,0.46,7.44,0.49,11.16,0.8c1.82,0.16,3.64,0.31,5.43,0.63
		c1.64,0.3,2.8,1.18,2.78,2.97c-0.03,1.93-1.29,2.84-3.06,2.94c-4.15,0.23-8.29-0.28-12.4-0.68c-5.98-0.58-5.95-0.74-6.84,5.16
		c-0.31,2.05-0.67,4.1-1.22,6.1c-0.68,2.51-0.19,4.61,1.22,6.81c3.86,6.04,6.86,12.49,8.58,19.5c0.46,1.88,0.15,3.82,0.76,5.65
		c0.6,3.83-0.22,3.45,4.09,4.02c2.93,0.39,5.9,0.52,8.79,1.1c2.24,0.45,3.2-1.25,4.62-2.22c1.27-0.24,2.16,0.44,2.97,1.27
		c0.62,0.64,1.25,1.27,2.2,1.4c4.87-0.27,8.19-3.57,8.64-8.61c0.1-1.16,0.08-2.32,0.08-3.48c0-61.68,0-123.35,0-185.03
		c0-2.32,0.09-4.63-1.23-6.74c-1.73-2.76-3.91-3.73-7.15-2.97c-2.53,0.64-2.85,2.64-2.64,4.7c0.65,6.13,0.32,12.27,0.35,18.4
		c0.07,13.11-0.01,26.22,0,39.33c0.01,11.95,0.02,23.89,0.03,35.84c0,5.63-0.43,11.29-0.25,16.88c0.19,5.72,0.16,11.44,0.23,17.15
		c0.15,11.37,0.4,22.75-0.06,34.1c-0.41,9.88,0.03,19.7,0.35,29.55c0.06,1.74-0.08,3.49-0.6,5.17c-0.19,0.62-0.56,1.29-1.38,1.13
		c-0.69-0.13-0.74-0.83-0.83-1.39c-0.12-0.82-0.08-1.66-0.08-2.49c0-63.9,0-127.8-0.01-191.7c0-1.16,0.13-2.3,0.12-3.45
		c-1.49-0.74-1.08-2.52-1.98-3.58c-1.25-1.95-3.13-1.71-5.04-1.55c-2.35,0.21-3-0.41-2.98-2.58c0.66-0.48,1.41-0.45,2.16-0.38
		c3.14,0.33,6.13-0.7,9.17-1.15c2.84-0.41,5.53-0.25,8.27,0.28c0.49,0.1,0.98,0.12,1.46-0.03c5.65,2.54,8.1,7.14,8.12,13.09
		c0.06,25.49,0.05,50.98,0.06,76.46c0.01,37.78,0.03,75.55,0.02,113.33c0,10.29-7.31,16.94-17.5,16.02
		c-3.14-0.28-6.27-0.62-9.41-0.94c-3.55-0.37-7.1-0.68-10.64-1.16c-1.24-0.17-1.77,0.17-2.2,1.3c-3.75,9.97-16.48,14.95-25.79,12.28
		c-1.51-0.43-1.71-0.17-1.96,1.28c-1.66,9.55-2.89,19.18-5.01,28.64c0.09,3.25-1.67,5.69-3.84,7.73
		c-8.78,8.29-23.68,7.69-31.01,0.86c-2.44-2.28-4.06-4.99-5.13-8.08c-0.57-1.64-0.91-3.35-1.45-5.01c-0.51-1.84-0.86-3.72-1.21-5.59
		c-0.28-1.51-0.99-2.15-2.59-1.79c-4.54,1.03-9.19,1.23-13.8,1.76c-3.51,0.4-6.95-0.25-10.41-0.55c-1.68-0.15-2.45,0.35-2.69,2
		c-0.23,1.56-0.57,3.1-0.91,4.64c-1.86,10.16-8.79,14.74-18.64,15.95c-3.97,0.49-7.78,0.04-11.53-1.09
		c-3.85-1.16-7.04-3.27-9.09-6.88C259.85,414.38,259.26,412.98,259.47,411.34z"/>
	<path class="st3" d="M332.23,407.31c0.45,1.48,0.9,2.97,1.36,4.45c2.33,7.53,7.64,11.57,15.24,12.69c7.47,1.11,14.3-0.23,19.95-5.7
		c2.03-1.96,2.93-4.53,4.17-6.92c1.62,1.39,3.72,1.17,5.61,1.62c4.65,1.12,9.46,1.7,13.61,4.35c1.19,0.76,2.62,1.51,2.66,3.04
		c0.05,1.69-1.43,2.53-2.75,3.22c-5.2,2.73-10.89,3.78-16.59,4.83c-9.75,1.79-19.61,2.72-29.48,3.38
		c-7.51,0.51-15.05,0.78-22.6,0.65c-8.71-0.15-17.43,0.14-26.14-0.09c-10.64-0.28-21.27-0.96-31.84-2.36
		c-8.11-1.08-16.23-2.01-24.03-4.59c-2.26-0.75-4.59-1.39-6.39-3.17c-1.28-1.27-1.29-2.36,0.02-3.59c2.53-2.37,5.77-3.3,8.94-4.09
		c4.47-1.12,8.97-2.26,13.6-2.63c0.77-0.06,1.43-0.42,1.89-1.07c3.47,11.17,14.54,12.76,23.29,11.43
		c8.67-1.32,14.57-5.9,16.43-14.85c0.68-0.34,1.42-0.41,2.17-0.39c8.83,0.27,17.67-0.38,26.49,0.38
		C329.32,408.04,330.8,407.78,332.23,407.31z"/>
	<path class="st4" d="M223.44,101.07c-0.4-1.67-0.79-3.21-3.02-1.61c-0.58,0.41-1.25-0.07-1.37-0.9c-0.65-2.28,1.32-3.32,2.04-4.55
		c-2.19,0.68-4.61,1.87-7.33,0.68c-0.07-0.14-0.22-0.37-0.19-0.39c0.75-0.67,2.8-0.48,2.1-2.01c-0.59-1.3-2.35-1.58-3.88-1.49
		c-2.55,0.14-5.03,1.48-7.65,0.41c3.93-0.71,7.86-1.44,11.8-2.11c5.53-0.94,11.1-1.69,16.59-2.8c2.36-0.48,4.69-0.8,7.08-0.8
		c29.64,0,59.28,0.25,88.91-0.12c12.6-0.16,23.81,10.11,23.75,23.51c-0.07,17.35,0.04,34.7-0.04,52.05
		c-0.01,2.04,0.54,2.26,2.37,1.95c19.62-3.32,39.25-6.56,58.88-9.81c0.89-0.15,1.81-0.18,2.71-0.26c0.5,1.86,1.55,2.29,3.45,1.79
		c1.98-0.52,3.97-0.26,5.14,1.87c-1.3,1.41-3.11,1.42-4.8,1.71c-20.67,3.5-41.35,6.91-62.03,10.32c-3.55,0.59-7.23,0.98-9.94,3.83
		c-0.92,2.57-0.26,5.22-0.39,7.83c-0.11,2.22-0.02,4.46-0.04,6.69c-0.01,0.55,0.05,1.28-0.8,1.23c-0.65-0.04-0.62-0.66-0.65-1.15
		c-0.04-0.49,0.04-1.02-0.09-1.48c-0.3-1.03-0.66-2.44-1.84-2.3c-1.09,0.13-0.44,1.53-0.55,2.37c-0.1,0.71-0.02,1.44-0.02,2.16
		c-0.2,0-0.4-0.01-0.6-0.01c0-4.67,0-9.33,0-14c-0.94-2.1-2.57-2.66-4.82-2.64c-12.37,0.09-24.74-0.12-37.1,0.08
		c-22.32,0.36-44.65,0.05-66.97,0.19c-3.24,0.02-6.46-0.35-9.7-0.24c-0.83,0.03-1.67-0.03-2.32-0.68c-1.29,1.8-0.12,3.88-0.67,5.74
		c-2.23-4.69-2.35-6.45-0.72-13.9c0.24-1.07,0.33-2.12,0.33-3.19c0-12.52,0.07-25.05-0.04-37.57c-0.03-3.54-0.64-7.08-0.45-10.64
		c0.05-0.94-0.25-2,0.98-2.87c0,1.08,0,1.96,0,2.85c0,17.25-0.01,34.5,0.02,51.75c0,0.94-0.4,2.02,0.56,2.79
		c1.15-1.11,2.63-0.99,4-0.89c4.89,0.36,9.78,0.17,14.67,0.17c33.59,0.02,67.19,0.01,100.78,0.01c1.32,0,2.67,0.2,3.84-0.64
		c0.95-0.72,0.78-1.78,0.79-2.75c0.02-17.31,0.11-34.63-0.03-51.94c-0.06-7.87-4.7-15.84-14.88-17.52
		c-1.28-0.43-2.61-0.42-3.93-0.42c-26.85,0.01-53.69,0.01-80.54,0c-1.32,0-2.65,0.06-3.97-0.08c-4.36-3.59-9.32-3.58-14.52-2.54
		c-1.77,0.35-2.6,1.26-2.83,2.92c-0.08,0.57-0.26,1.26,0.39,1.55c0.67,0.31,1-0.36,1.39-0.76c1.98-2.12,2.7-2.21,4.87-0.56
		c0.01,0.56-0.33,0.95-0.73,1.22c-2.91,1.98-5.31,4.45-7.19,7.42C224.05,100.8,223.76,100.98,223.44,101.07z"/>
	<path class="st5" d="M93.49,374.65c2.11-0.56,2.32-2.59,3.17-4.12c1.15-0.58,1.98,0.25,2.92,0.63c0.41,0.25,0.77,0.53,0.9,1.03
		c0.97,0.72,2.09,0.4,3.14,0.4c33.02,0.02,66.05,0.02,99.07,0c2.44,0,4.61,0.56,6.57,2.08c1.36,1.05,4.1,0.23,4.03-1.28
		c-0.14-3.3,2.3-2.16,3.85-2.59c-2.63,4.05-6.15,6.63-11.17,6.63c-34.84,0.01-69.68,0.03-104.52,0
		C98.53,377.42,95.73,376.76,93.49,374.65z"/>
	<path class="st4" d="M437.25,151.53c-1.55,1.02-3.04-0.19-4.58-0.11c-3.61,0.18-7.2,0.5-10.74,1.32c-1.16,0.27-2.45,0.53-3.58-0.31
		c3.71-0.69,7.4-1.51,11.13-2.01C432.12,150.06,434.72,150.7,437.25,151.53z"/>
	<path class="st1" d="M99.38,371.64c-1.06,0-1.78-0.81-2.72-1.11c-2.01-2.19-2.7-4.74-2.7-7.73c0.06-45.23,0.04-90.46,0.05-135.69
		c0-1.15,0.05-2.33,0.29-3.46c0.77-3.74,3.39-5.89,7.21-5.89c34.77-0.02,69.55-0.03,104.32-0.02c4.71,0,7.55,2.92,7.67,7.89
		c0.09,3.65,0.03,7.3,0.02,10.95c-0.01,19.92-0.03,39.84-0.05,59.75c0,2.86-0.02,2.88-2.89,2.18c-3.62-0.88-7.24-1.77-10.85-2.69
		c-1.25-0.32-2.15-0.8-2.12-2.48c0.03-1.62-1.22-2.47-2.85-2.47c-11.04-0.01-22.08-0.02-33.11-0.01c-1.88,0-3.02,0.91-2.98,2.87
		c0.04,1.98,1.34,2.74,3.14,2.74c6.97,0.02,13.94,0.01,21.06,0.01c-0.44,1.36-0.98,2.56-1.2,3.82c-0.73,4.19,0.93,7.61,4.12,10.07
		c3.55,2.73,5.71,5.59,5.74,10.53c0.03,4.89,3.13,8.96,6.57,12.48c0.77,1.41-0.04,1.97-1.25,2.33c-10.68-0.14-21.36-0.03-32.04-0.06
		c-1.08,0-2.15-0.02-3.23,0.11c-0.9,0.11-1.62,0.47-1.63,1.52c-0.01,0.96,0.57,1.54,1.44,1.79c1.04,0.3,2.13,0.24,3.21,0.24
		c8.44,0.01,16.89,0,25.33,0.01c1.32,0,2.66-0.11,3.92,0.43c2.07,1.58,1.13,3.29-0.01,4.75c-2.66,3.41-5.74,6.45-9.12,9.14
		c-10.7,8.49-23.08,13.27-36.27,16.24c-6.25,1.41-12.57,2.05-18.99,1.99c-9.13-0.08-18.26-0.01-27.39-0.03
		C101.18,371.83,100.26,372.03,99.38,371.64z"/>
	<path class="st6" d="M330.28,233.02c13.72,4.66,25.3,12.67,35.36,22.92c9.35,9.53,17.48,19.98,22.78,32.37
		c4.56,10.66,5.73,21.72,3.47,33.11c-0.32,1.6-0.36,3.69-3.02,1.92c-0.8-0.53-1.98-0.37-2.7,0.56c-0.69,0.9-0.62,1.87-0.04,2.79
		c0.44,0.7,0.93,1.38,1.44,2.02c5.74,7.2,10.23,15.09,13.01,23.88c1.1,3.49,1.45,7.13,0.92,10.81c-0.93,6.5-5.67,11.75-11.93,13.14
		c-7.23,1.6-12.48-0.49-16.42-6.71c-2.58-4.06-4.62-8.42-6.77-12.72c-0.41-0.81-0.8-1.66-1.34-2.38c-0.83-1.09-2.01-1.65-3.27-0.9
		c-1.11,0.66-1.34,1.81-0.88,3.06c0.88,2.4,1.74,4.81,2.61,7.22c-0.26,1.33-1.23,2.12-2.21,2.9c-13.16,10.55-28.1,17.02-44.87,18.63
		c-22.77,2.19-43.68-2.86-61.82-17.35c-4.62-3.69-8.6-8.01-11.67-13.12c-2.76-5.14-4.64-10.62-6.41-16.15
		c-0.38-1.18-0.83-2.35-1.35-3.47c-0.52-1.13-1.35-1.98-2.74-1.52c-1.25,0.41-1.89,1.44-1.75,2.71c0.14,1.31,0.42,2.63,0.88,3.86
		c0.64,1.72-0.07,1.87-1.46,1.52c-6.69-1.65-13.25-3.66-19.37-6.94c-3.45-1.85-6.87-3.71-9.54-6.65c-3.68-4.04-5.37-8.71-4.26-14.18
		c0.23-1.11,0.06-1.96-0.79-2.67c-0.89-0.74-1.8-1.45-2.7-2.18c-1.35-1.1-2.85-2.06-4-3.34c-1.48-1.65-3.23-3.58-1.78-5.95
		c1.39-2.27,3.79-1.39,5.67-0.75c9.52,3.22,19.44,4.92,29.04,7.81c1.74,0.52,2.68,1.25,2.7,3.2c0.02,2.26,0.77,4.41,1.61,6.48
		c2.28,5.64,6.95,7.96,13.87,6.67c1.96-0.36,2.28,0.13,2.6,1.9c0.95,5.28,2.64,10.27,6.6,14.2c2.75,2.72,5.99,4.23,9.85,3.84
		c2.13-0.21,3.13,0.6,3.9,2.48c1.07,2.61,2.16,5.22,2.83,7.96c2.49,10.27,9.44,16.19,19.11,19.05c20.84,6.18,42.26-2.4,54.71-21.58
		c2.22-3.41,4.35-6.86,6.04-10.57c0.37-0.81,0.69-1.54,1.84-1.76c8.61-1.64,13.89-7.3,14.39-16.16c0.29-5.03,1.19-9.36,5.7-12.32
		c1.14-0.75,1.98-2.01,2.83-3.12c0.89-1.16,1.49-1.14,2.07,0.21c0.19,0.46,0.44,0.89,0.7,1.32c0.63,1.02,1.52,1.59,2.72,1.17
		c1.08-0.37,1.4-1.31,1.46-2.38c0.25-4.99-6.9-10.47-11.59-8.87c-1.64,0.56-2.06,2.05-0.84,3.29c0.51,0.52,1.21,0.84,1.99,1.36
		c-4.01,4.65-8.5,8.67-13.58,12.18c-17.57,12.14-37.4,17.34-58.31,18.33c-22.56,1.08-40.81-8.49-55.66-25.05
		c-3.94-4.4-7.44-9.12-9.97-14.51c-1.39-2.97-1.44-5.94-0.28-8.93c1.62-4.17,3.82-8.02,6.77-11.99c0.41,2.78,0.64,5.07,1.09,7.31
		c3.98,20.18,24.17,26.65,39.9,18.59c1.98-1.02,3.97-2.18,5.61-3.65c1.62-1.45,1.99-0.81,2.59,0.74
		c3.38,8.65,9.46,14.74,17.99,18.26c12.77,5.25,24.86,2.86,36.04-4.3c17.98-11.51,24.51-35.05,15.44-54.16
		c-6.99-14.73-24.28-22.31-39.98-17.62c-4.11,1.23-7.84,3.13-11.3,5.62c-0.77,0.55-1.33,0.94-1.84-0.3
		c-1.5-3.62-3.43-6.97-6.87-9.91c7.93-1.9,15.36-3.26,23-3.21C322.35,230.5,326.39,231.29,330.28,233.02z"/>
	<path class="st1" d="M241.9,270.78c0.14-17.42,14.04-33.93,31.16-37.01c11.14-2.01,21.62,3.84,24.81,13.87
		c0.37,1.18,0.55,2.42,0.92,3.6c0.6,1.91,1.87,2.25,3.45,1.17c1.09-0.74,2.06-1.67,3.07-2.52c11.95-10.15,28.85-9.56,39.85,1.6
		c5.38,5.46,8.1,12.22,8.44,19.91c0.74,3.06-0.02,6.03-1.3,8.65c-6.42,13.14-16.63,21.49-31.47,22.9
		c-13.47,1.28-26.54-6.66-31.61-19.23c-0.19-0.46-0.36-0.93-0.52-1.4c-0.53-1.56-1.38-1.93-2.77-0.87
		c-1.71,1.32-3.46,2.58-5.33,3.66c-8.58,4.92-17.47,5.66-26.45,1.42c-5.46-2.58-9.61-6.72-12.13-12.34
		C241.51,273.07,241.68,271.92,241.9,270.78z"/>
	<path class="st3" d="M217.04,103.56c-0.9,6.6-0.44,13.24-0.45,19.86c-0.05,30.19-0.01,60.39,0,90.58c0,0.97,0,1.94,0,3.72
		c-3.97-5.18-9.03-5.3-14.25-5.19c-6.72,0.14-13.44,0.02-20.16,0.11c-1.61,0.02-2.32-0.24-2.31-2.12
		c0.06-31.36,0.04-62.71,0.08-94.07c0-2.72,0.39-5.43,1.76-7.88c1.85,0.26,3.61-0.31,5.41-0.6c9.65-1.54,19.37-2.65,28.96-4.55
		C216.41,103.37,216.73,103.42,217.04,103.56z"/>
	<path class="st7" d="M242.92,355.18c2.71,1.87,4.14,4.88,6.41,7.18c11.96,12.1,26.41,19.06,43.1,21.78c5,0.81,10.02,1.4,15.03,1.32
		c20.1-0.31,38.12-6.7,53.83-19.35c0.77-0.62,1.48-1.32,2.22-1.99c2.42,4.91,4.81,9.85,8.97,13.62c0.73,0.66,0.64,1.5,0.5,2.32
		c-1.63,9.21-3.09,18.46-4.97,27.63c-1.55,7.6-6.08,11.07-13.88,11.29c-2.15,0.06-4.29,0.05-6.43-0.46
		c-4.24-0.99-7.11-3.44-8.48-7.56c-1.57-4.73-2.61-9.59-3.51-14.48c-0.74-4.04-1.66-4.74-5.74-3.65
		c-11.86,3.17-23.8,3.02-35.73,0.68c-6.03-1.18-11.85-3.15-17.45-5.73c-0.75-0.35-1.52-0.67-2.3-0.94c-1.49-0.51-2.9-0.4-3.55,1.24
		c-0.62,1.54,0.08,2.7,1.5,3.51c3.98,2.27,8.18,4.03,12.56,5.32c2.7,0.79,5.43,1.51,8.2,2.01c1.48,0.27,1.74,0.94,1.55,2.19
		c-0.43,2.79-0.99,5.54-1.87,8.22c-1.18,3.6-3.68,5.83-7.16,7.07c-3.85,1.37-7.85,1.48-11.8,0.89c-4.63-0.69-7.86-3.29-9.17-8
		c-1.49-5.35-3.15-10.65-4.58-16.01c-3.03-11.29-7.54-21.9-14.03-31.66C244.8,359.62,243.7,357.47,242.92,355.18z"/>
	<path class="st8" d="M407.33,358.71c-0.93-9.67-5.08-18.09-10.16-26.14c-1-1.58-1.25-3.05-0.8-4.91c0.96-3.94,1.79-7.94,2.02-12
		c0.08-1.41,0.7-1.57,1.9-1.48c5.54,0.42,11.09,0.77,16.64,1.14c1.66,0.11,3.38,0.12,3.52-2.08c0.14-2.16-1.48-2.41-3.19-2.53
		c-5.63-0.39-11.25-0.89-16.88-1.24c-1.38-0.09-1.82-0.53-1.88-1.91c-0.35-8.21-2.32-16.06-5.75-23.52
		c-0.54-1.18-0.22-1.64,0.76-2.08c0.23-0.1,0.44-0.23,0.66-0.35c2.22-1.29,4.3-3.16,6.69-3.72c2.75-0.65,3.72,2.9,6.03,3.9
		c2.66,1.15,5.19,2.61,8.12,2.98c3.41,0.42,4.56-0.82,3.72-4.1c-0.7-2.73-1.55-5.44-2.86-7.94c-1.27-2.43-1.21-4.67,0-7.09
		c1.23-2.44,2.04-5.06,2.65-7.74c0.76-3.38-0.4-4.7-3.85-4.14c-4.56,0.74-8.53,2.73-11.73,6.05c-1.23,1.28-2.06,1.22-3.53,0.31
		c-6.95-4.3-14.27-7.76-22.53-8.72c-0.74-0.09-1.53-0.33-2.22-0.17c-4.45,0.97-7.5-1.19-10.3-4.26c-1.38-1.51-3.08-2.74-4.86-4.29
		c1.21-0.57,2.34-0.39,3.41-0.4c17.93-0.19,35.86-0.37,53.8-0.52c1.65-0.01,3.15-0.13,4.04-1.77c1.3,1.17,0.98,2.75,0.98,4.2
		c0.04,10.54,0.02,21.09,0.02,31.63c0,23.74,0,47.49,0,71.23c0,1.25,0.04,2.49-0.07,3.73c-0.31,3.45-2.66,6.01-6.08,6.62
		c-1.4,0.25-2.82,0.29-4.22,0.11C409.82,357.29,408.46,357.55,407.33,358.71z"/>
	<path class="st9" d="M352.54,217.64c7.94-4.38,11.17-11.15,8.9-18.9c-1.43-4.88-4.94-7.88-9.4-9.95c0.8-2.24,0.61-4.58,0.64-6.9
		c0.06-4.89,2.06-7.49,6.88-8.66c3.31-0.8,6.71-1.15,10.07-1.67c13.86-2.14,27.74-4.21,41.57-6.53c7.04-1.18,10.49,1.62,10.51,8.72
		c0.05,20.42,0.03,40.85,0,61.27c0,1.29,0.25,2.7-0.96,3.7c-0.91-1.41-2.21-1.75-3.84-1.7c-3.86,0.11-7.73,0.03-12.02,0.03
		c5.38-5.16,8.13-11.36,9.68-18.14c0.86-3.75,1.01-7.57,0.11-11.35c-2.59-10.87-11.56-15.45-22.81-11.32
		c0.58-3.87,2.27-6.77,5.22-8.96c0.53-0.39,1.12-0.71,1.69-1.03c1.22-0.7,1.53-1.78,0.97-2.97c-0.66-1.38-1.96-1.53-3.2-0.93
		c-2.59,1.25-4.65,3.16-6.26,5.55c-0.37,0.55-0.74,1.09-1.25,1.83c-1.5-2.27-3.05-4.38-5.39-5.76c-2.57-1.52-5.28-2.29-8.28-2.23
		c-2.07,0.04-2.99,0.83-3.02,2.97c-0.05,3.74,1.36,6.91,3.6,9.97c-7.62,2.48-11.82,7.75-12.43,15.52
		c-0.72,9.08,2.27,17.12,7.85,24.23c0.77,0.98,1.66,1.86,2.75,3.07c-7.01,0.49-13.84-0.38-20.59,0.58c-0.97-1.1-0.87-2.46-0.88-3.78
		C352.61,228.75,352.73,223.19,352.54,217.64z"/>
	<path class="st10" d="M430.72,156.87c-0.16-1.39,0.88-1.12,1.64-1.14c3.83-0.12,7.43,3.36,7.83,7.57c0.09,0.99,0.07,1.99,0.07,2.98
		c0.01,62.05,0.01,124.1,0.05,186.15c0,3.57-0.25,7.04-2.93,9.69c-2.07,2.04-4.38,3.8-7.61,2.49c-0.54-0.76-0.46-1.61-0.19-2.39
		c0.86-2.49,0.75-5.06,0.75-7.63c0-63.06,0-126.12-0.01-189.18c0-1.99,0.08-3.98-0.19-5.96C430.01,158.53,430,157.61,430.72,156.87z
		"/>
	<path class="st11" d="M420.74,238.73c0.03-15.76,0.06-31.53,0.08-47.29c0.01-6.22,0.02-12.45,0-18.67
		c-0.02-5.38-2.92-7.82-8.28-6.97c-13.6,2.15-27.2,4.32-40.81,6.46c-3.67,0.58-7.35,1.05-11.03,1.56c-4.84,0.67-7.13,3.26-7.16,8.09
		c-0.01,1.58-0.04,3.15-0.01,4.73c0.02,1.12-0.22,1.99-1.51,2.15c-4.09-0.97-4.08-0.97-4.06-5.07c0.02-3.8,0.02-7.6,0.02-11.41
		c0.83-2.55,2.81-3.46,5.27-3.86c15.19-2.49,30.38-5.01,45.57-7.56c8.65-1.45,17.29-2.95,25.93-4.43c1.65,0.94,1,2.7,1.44,4.07
		c0.62,0.72,0.32,1.59,0.32,2.39c0.02,64.53,0.02,129.06-0.01,193.6c0,1.67,0.4,3.47-0.78,4.99c-1.01,2.68-2.79,3.49-5.65,2.87
		c-2.9-0.63-5.92-0.76-8.88-1.11c-3.86-0.46-3.86-0.46-3.89-4.56c-0.07-2.15,0.63-2.91,2.97-2.27c1.7,0.46,3.63,0.3,5.43,0.12
		c2.48-0.25,5.19-3.3,5.18-6.61c-0.14-33.84-0.09-67.68-0.1-101.51c0-2.82-0.03-5.64-0.05-8.46
		C420.76,239.56,420.75,239.14,420.74,238.73z"/>
	<path class="st12" d="M367.93,214.92c-0.02-6.55,0.74-10.83,4.81-13.84c3.35-2.48,7.05-2.74,10.58-1.07
		c4.16,1.96,7.79,1.9,12.03-0.07c6.52-3.04,13.53,1.22,14.99,8.47c1.34,6.63-0.68,12.62-3.48,18.45c-1.22,2.54-2.7,4.91-4.92,6.77
		c-2.85,2.39-5.99,2.73-9.3,1.42c-2.23-0.88-4.22-0.93-6.43,0.12c-3.28,1.56-6.43,1.18-9.22-1.35
		C370.85,228.23,368.54,220.99,367.93,214.92z"/>
	<path class="st13" d="M99.38,371.64c7.88-0.02,15.78-0.28,23.65,0.01c11.04,0.41,21.76-1.35,32.27-4.35
		c14.15-4.04,26.95-10.58,36.83-21.88c1.25-1.43,2.96-2.82,2.01-5.17c2.06-1.04,2.92-2.78,2.96-5.01c0.85-0.34,1.07-1.03,1.01-1.86
		c4.1,3.71,8.83,6.41,13.94,8.45c1.24,0.5,1.53,1.22,1.52,2.44c-0.05,6.64,0,13.28-0.04,19.91c-0.03,4.95-3.07,7.87-8.24,7.88
		c-25.39,0.04-50.78,0.04-76.17,0.06c-9.54,0.01-19.08,0.04-28.62,0.06C100.11,372,99.75,371.82,99.38,371.64z"/>
	<path class="st14" d="M222.1,170.36c39.12,0.01,78.25,0.01,117.37,0.02c3.32,0,3.32-0.01,3.54,3.28c-0.1,0.05-0.2,0.1-0.31,0.13
		c-1.91-3.26-5.08-1.87-7.81-2.1c-10.21,0.08-20.42,0.02-30.63,0.04c-3.6,0.01-3.59,0.01-3.59,3.49c0,3.49,0.08,6.97-0.03,10.46
		c-0.15,5.09-2.64,7.44-7.65,7.87c-5.05,0.43-10.08,0.76-15.13,0.14c-2.59-3.79-4.94-7.64-4.43-12.57c0.21-2.03-0.92-3.08-2.98-3.08
		c-6.72,0.01-13.45,0.02-20.17,0.01c-1.93,0-3.45,0.63-3.12,2.85c0.77,5.17-1.91,9.03-4.61,12.93c-4.47,0.64-8.86,0.22-13.2-0.97
		c-0.85-1.16-0.71-2.51-0.72-3.82c-0.03-4.7,0.02-9.41-0.02-14.11c-0.03-2.96-0.14-3.05-3.03-3.19c-1.23-0.06-2.51,0.05-3.46-0.97
		C222.03,170.63,222.03,170.49,222.1,170.36z"/>
	<path class="st15" d="M277.85,193.68c0.52-1.53,1.86-1.03,2.74-0.82c4.81,1.14,9.56-0.3,14.34-0.24c2.56,0.04,4.81-3.27,4.83-6.32
		c0.03-4.56,0.08-9.13-0.06-13.68c-0.04-1.42,0.23-1.83,1.67-1.82c11.28,0.08,22.56,0.08,33.84,0.1c2.22,0.82,3.14,2.53,3.24,4.79
		c0.18,4.03-0.19,8.08,0.38,12.1c0.11,0.77-0.21,1.45-0.63,2.09c-5.4,3.62-8.46,9.2-12.06,14.34c-1.32,0.04-1.54-1.04-1.94-1.92
		c-2.77-6.13-8.34-8.74-14.7-6.49c-3.49,1.24-6.7,1.27-10.13-0.06c-3.31-1.28-6.73-0.99-9.9,0.6c-3.69,1.85-5.64,4.81-5.91,9.08
		c-0.35,5.5,1.18,10.48,3.35,15.38c0.86,2.25,1.63,4.53,2.64,6.71c0.37,0.79,0.98,1.62,0.18,2.52c-2.82-0.6-5.64-1.19-8.45-1.81
		c-1.24-0.27-0.77-1.32-0.77-2.05c-0.03-6.97-0.14-13.94,0.04-20.9C280.66,201.11,280.3,197.18,277.85,193.68z"/>
	<path class="st16" d="M241.9,270.78c0.5,5.42,4.11,8.85,7.91,12.04c9.71,8.13,23.94,7.29,34.34-1.01c4.46-3.56,3.95-2.71,5.78,1.56
		c4.61,10.73,12.82,16.92,24.48,18.5c17.81,2.42,32.07-9.95,37.76-23.3c0.95-2.24,1.57-4.67,1.42-7.19
		c1.06,6.02-0.49,11.69-2.57,17.2c-5.67,15.01-21.22,24.4-35.43,23.81c-12.1-0.5-23.16-8.92-26.29-20.64
		c-0.28-1.04-0.55-2.08-0.82-3.12c-0.65-2.45-2.02-2.88-3.84-1.06c-2.53,2.53-5.17,4.89-8.24,6.75c-9.76,5.93-21.4,4.61-28.78-3.65
		C242.6,285.06,241.21,278.16,241.9,270.78z"/>
	<path class="st17" d="M222.1,170.77c1.74,0.01,3.49,0.13,5.22,0.01c1.78-0.12,2.27,0.59,2.25,2.3c-0.07,6.55-0.02,13.1-0.01,19.64
		c0.92,1.01,0.9,2.28,0.91,3.52c0.05,12.93-0.06,25.87,0.06,38.8c0.01,0.76-0.03,1.49-0.48,2.14c-0.87,1.42-0.8,2.72,0.47,3.88
		c0.58,1.31-0.07,2.6-0.08,3.91c-0.02,7.11,0.03,14.21-0.03,21.32c-0.01,1.68,1.08,3.15,0.66,4.85c-2.1,3.65-4.48,7.13-6.17,11.03
		c-2.01,4.64-2.47,9.25-0.4,13.96c0.59,1.35,0.8,2.69,0.46,4.11c-0.17,0.69,0.25,1.92-1.2,1.59c-0.91-0.21-2.07-0.22-2.04-1.67
		c0.03-1.41-0.01-2.82-0.01-4.23c0.04-40.74,0.09-81.48,0.15-122.22C221.85,172.73,221.64,171.71,222.1,170.77z"/>
	<path class="st18" d="M425.75,361.51c0.44-2.88,0.4-5.79,0.39-8.69c-0.02-63.6-0.03-127.2-0.05-190.8c0-0.49,0.08-0.99,0.12-1.48
		c0.09-0.69,0.18-1.38,0.27-2.08c0.11,0.01,0.23,0.02,0.34,0.03c0,66.87,0,133.74,0,200.62c0.2,0.02,0.41,0.05,0.61,0.07
		c0.46-2.11,0.78-4.26,0.61-6.44c-0.2-2.7-0.58-5.4-0.25-8.11c0.32-2.67-0.63-5.25-0.5-7.91c0.71-15.21,0.58-30.44,0.46-45.66
		c-0.05-6.43-0.25-12.88-0.27-19.29c-0.02-9.23,0.42-18.47,0.27-27.71c-0.13-7.93-0.15-15.88-0.1-23.8
		c0.07-11.94-0.02-23.88,0.13-35.82c0.07-5.72-0.04-11.43,0.04-17.15c0.03-2.25-0.69-4.4-0.57-6.67c0.09-1.75,0.93-2.93,2.08-4.07
		c0.71-0.7,0.97,0.01,1.38,0.31c0.46,1.95,0.48,3.94,0.48,5.93c0,64.95,0,129.91,0.02,194.86c0,2.45-0.45,4.74-1.45,6.95
		C427.88,364.29,427.51,362,425.75,361.51z"/>
	<path class="st19" d="M241.98,90.54c4.73,0.03,9.46,0.08,14.19,0.09c24.08,0.01,48.16-0.01,72.24,0.01c1.13,0,2.33-0.31,3.39,0.41
		c-1.25,1.36-2.92,0.98-4.45,0.98c-18.51,0.03-37.02,0.02-55.53,0.02c-8.38,0-16.79,0.41-25.14-0.1
		c-11.25-0.69-17.66,9.63-17.69,17.54c-0.05,14.19-0.01,28.39-0.02,42.58c0,3.07,0.05,6.14-0.01,9.21
		c-0.04,1.94,0.77,2.73,2.66,2.62c0.99-0.06,1.99,0,2.99,0c35.69,0,71.38-0.01,107.07,0.02c1.69,0,3.52-0.45,4.98,0.92
		c-1.17,0.89-2.52,0.44-3.78,0.44c-39.76,0.02-79.51,0-119.27-0.01c-0.5,0-1,0.02-1.49,0.03c-0.07-0.65-0.21-1.31-0.21-1.96
		c0-17.93,0.04-35.86,0-53.79c-0.01-2.95,0.48-5.76,1.53-8.49c1.78-4.02,4.84-6.83,8.56-9.02C235.1,90.07,238.35,89.06,241.98,90.54
		z"/>
	<path class="st20" d="M298.88,369.7c-7-0.16-13.74-1.22-19.61-5.37c-3.52-2.49-3.49-3.63,0.18-5.77c5.14-2.99,10.6-4.12,16.49-2.64
		c1.42,0.36,2.21,0.75,0.82,2.16c-0.79,0.8-1.33,1.81-0.36,2.85c0.98,1.05,2.06,0.47,2.93-0.12c2.76-1.86,5.65-3.45,8.76-4.64
		c5.74-2.19,11.51-2.24,17.25-0.11c2.68,0.99,2.75,1.53,0.61,3.42C318.23,366.33,309.11,369.5,298.88,369.7z"/>
	<path class="st21" d="M230.04,237.18c-0.17-1.06-0.5-2.11-0.5-3.17c-0.02-13.77,0-27.53,0.01-41.3c3.82,0.18,7.64,0.35,11.45,0.52
		c0.58,0.03,1.14,0.07,1.53,0.58c-2.59,3.53-2.77,7.57-2.71,11.76c0.13,9.59,0,19.18,0.1,28.77c0.02,1.82-0.38,2.41-2.29,2.38
		C235.11,236.69,232.51,236.12,230.04,237.18z"/>
	<path class="st22" d="M373.16,255.53c5.91-0.04,10.79,1.67,15.58,3.73c3.74,1.61,7.28,3.59,10.68,5.82
		c2.94,1.93,3.11,1.81,5.23-0.9c2.29-2.93,5.25-4.92,9.79-6c-4.48,7.46-4.73,14.54-0.42,21.69c-4.05-0.72-6.9-2.76-9.24-5.64
		c-2.19-2.7-2.2-2.71-5.2-0.82c-2.59,1.64-5.17,3.3-7.94,4.63c-0.9,0.43-1.62,0.72-2.28-0.43
		C384.91,269.83,379.54,262.69,373.16,255.53z"/>
	<path class="st23" d="M271.58,190.79c2.79,4.8,5.69,9.12,5.27,15c-0.48,6.76-0.17,13.59-0.1,20.38c0.01,1.46-0.34,1.97-1.89,2.09
		c-2.38,0.19-4.75,0.68-7.08,1.21c-1.34,0.31-1.89,0.25-1.87-1.38c0.1-8.7,0.08-17.41,0.13-26.11c0-0.65,0.08-1.35,0.34-1.93
		C267.83,196.9,269.52,193.88,271.58,190.79z"/>
	<path class="st24" d="M84.55,310.8c0-12.44,0.01-24.88-0.02-37.32c0-1.54-0.09-2.63,2.11-2.57c1.99,0.06,2.27,0.79,2.27,2.52
		c-0.05,25.05-0.04,50.09-0.01,75.14c0,1.52-0.1,2.46-2.06,2.45c-1.85-0.01-2.37-0.53-2.36-2.4c0.09-12.61,0.04-25.21,0.04-37.82
		C84.53,310.8,84.54,310.8,84.55,310.8z"/>
	<path class="st1" d="M217.04,103.56c-2.25,1.66-5.01,1.5-7.55,1.93c-8.67,1.46-17.43,2.34-26.05,4.11c-1,0.21-1.83,0.48-1.74-1.02
		c2.84-6.61,7.98-9.95,15-10.95c5.71-0.81,11.37-1.95,17.05-2.94c2.63,0.06,5.15-0.83,7.88-1.06c-0.52,1.92-2.34,3.02-2.58,4.93
		C217.91,100.04,217.8,101.93,217.04,103.56z"/>
	<path class="st6" d="M335.61,200.67c3.55-5.92,9.06-8.41,14.28-6.45c4.28,1.6,7.1,5.94,6.52,10.03c-0.69,4.88-4.74,8.69-9.53,8.94
		c-1.07,0.06-2.15,0.01-3.23,0.01C337.5,213.25,333.39,206.84,335.61,200.67z"/>
	<path class="st25" d="M274.09,337.18c2.55,0.75,5.27,1.65,8.07,1.68c4.87,0.06,8.66,1.63,11.19,6.07c0.9,1.59,2.58,2.76,4.18,3.84
		c0.47,0.32,0.92,0.85,0.52,1.48c-0.32,0.52-0.87,0.24-1.35,0.15c-6.55-1.25-12.79-0.32-18.73,2.69c-0.97,0.49-1.81,1.12-2.65,1.81
		c-1.52,1.25-2.7,0.87-3.39-0.99c-1.27-3.4-2.5-6.82-3.82-10.21c-0.5-1.3-0.48-2.31,0.72-3.25
		C270.41,339.2,271.61,337.36,274.09,337.18z"/>
	<path class="st26" d="M75.07,310.86c0-12.52,0.03-25.04-0.03-37.56c-0.01-1.61,0.23-2.34,2.11-2.33c1.88,0.01,2.11,0.75,2.11,2.35
		c-0.03,25.04-0.01,50.08,0.03,75.12c0,1.51-0.04,2.43-2.03,2.45c-2.01,0.02-2.24-0.77-2.23-2.47c0.06-12.52,0.03-25.04,0.03-37.56
		C75.06,310.86,75.07,310.86,75.07,310.86z"/>
	<path class="st27" d="M231.07,271.14c-1.3-1.63-1.61-3.48-1.58-5.54c0.09-6.76,0.06-13.52,0.01-20.29
		c-0.01-1.53,0.22-2.94,1.01-4.25c5.93,0,11.85,0,18.41,0c-1.19,1.47-2.04,2.4-2.77,3.42c-3.62,5.07-6.64,10.47-8.25,16.53
		C236.78,265.21,233.43,267.82,231.07,271.14z"/>
	<path class="st28" d="M332.23,407.31c-0.11,0.98-0.3,1.69-1.64,1.58c-9.33-0.71-18.67-0.34-28.01-0.42
		c-1.16-0.01-2.33,0.1-3.39-0.55c0.36-2.2,0.8-4.39,1.04-6.6c0.12-1.13,0.55-1.38,1.57-1.22c9.19,1.47,18.28,0.63,27.3-1.32
		c1.36-0.3,1.52,0.21,1.7,1.25C331.24,402.47,331.75,404.88,332.23,407.31z"/>
	<path class="st29" d="M330.63,333.76c0.98-0.03,1.62,0.04,2.19,0.46c1.88,1.36,3.89,2.49,6.03,3.4c1.59,0.67,1.98,1.7,1.17,3.37
		c-1.72,3.51-3.67,6.85-6.03,9.96c-1.18,1.55-2.35,2.1-4.21,1.07c-3-1.66-6.32-2.38-9.7-2.85c-2.02-0.28-2.38-1.03-1.04-2.49
		c2.32-2.56,4.12-5.5,5.15-8.71C325.34,334.39,328.15,334.27,330.63,333.76z"/>
	<path class="st30" d="M243.91,224.6c-0.19-4.49-0.23-8.98,0.05-13.47c0.79-0.72,1.77-0.86,2.78-0.87c4.14-0.05,8.28-0.05,12.43,0
		c1.01,0.01,1.98,0.17,2.79,0.86c0.23,4.5,0.26,9-0.02,13.5c-0.84,0.8-1.89,0.93-2.98,0.94c-4.03,0.04-8.05,0.04-12.08,0
		C245.79,225.55,244.74,225.39,243.91,224.6z"/>
	<path class="st31" d="M335.61,200.67c-0.18,3.68-0.05,7.22,3.1,9.9c1.48,1.26,3.12,2.09,4.94,2.63
		c-8.24,1.42-12.08,7.24-14.68,14.45c-0.82,2.26-0.66,3.96,1.31,5.38c-4.07-0.66-8.13-1.32-12.2-1.98c2.87-0.28,3.87-2.37,4.57-4.74
		c2.59-8.86,6.56-17.06,11.97-24.55C334.9,201.36,335.28,201.03,335.61,200.67z"/>
	<path class="st32" d="M286.38,221.16c-2.26-4.49-3.76-9.15-3.74-14.26c0.03-8.71,6.66-14.17,15.23-12.46
		c0.24,0.05,0.49,0.1,0.72,0.21c3.88,1.83,7.56,1.44,11.66,0.13c6.84-2.18,12.96,1.57,15.04,8.4c0.14,0.47,0.18,1.01,0.85,1.03
		c-1.23,0.29-1.8,0.79-2.07,2.31c-1.14,6.44-3.42,12.5-6.81,18.13c-0.86-0.94-0.24-1.87,0.02-2.79c1.09-3.75,3.04-7.17,4.23-10.87
		c2.69-8.31-1.78-14.72-10.82-12.75c-4.91,1.07-9.19,0.7-13.79-0.41c-5.13-1.24-10.76,2.29-10.92,8.43
		c-0.09,3.67,0.82,7.03,1.99,10.41c0.38,1.09,0.85,2.16,0.89,3.35C288.5,221.38,288.01,222.52,286.38,221.16z"/>
	<path class="st28" d="M243.91,224.6c6.01,0.01,12.02,0.02,18.02,0.02c0.05,1.81,0.04,3.63,0.17,5.43c0.08,1.17-0.42,1.78-1.4,2.32
		c-1.87,1.05-3.73,2.13-5.46,3.38c-1.53,1.11-3.18,0.68-4.78,0.67c-2.13-0.02-4.87,0.88-6.22-0.44c-1.35-1.33-0.38-4.07-0.46-6.19
		C243.72,228.06,243.86,226.33,243.91,224.6z"/>
	<path class="st33" d="M261.95,211.12c-6,0-12,0.01-18,0.01c-0.08-2.72-0.14-5.44-0.26-8.15c-0.05-1.06,0.34-1.45,1.42-1.44
		c5.2,0.04,10.4,0.05,15.6,0.02c1.05-0.01,1.48,0.34,1.43,1.43C262.05,205.69,262.01,208.4,261.95,211.12z"/>
	<path class="st33" d="M268.18,188.98c-1.68,2.96-3.14,5.52-4.58,8.09c-0.31,0.56-0.73,0.82-1.39,0.82
		c-5.59-0.01-11.19-0.01-17.22-0.01c1.72-2.96,3.22-5.5,4.67-8.07c0.45-0.79,1.12-0.85,1.9-0.85
		C256.91,188.98,262.28,188.98,268.18,188.98z"/>
	<path class="st34" d="M233.19,359.43c-0.17,0-0.33,0-0.5,0c-9.02-0.3-11.71-3.38-11.01-12.47c0.09-1.15,0.36-1.42,1.49-1.05
		c3.14,1.03,6.29,2.04,9.58,2.47c1.03,0.13,1.54,0.69,1.91,1.65c1.04,2.69,2.13,5.37,3.33,8c0.62,1.36,0.12,1.55-1.08,1.49
		c-1.24-0.06-2.48-0.01-3.72-0.01C233.19,359.48,233.19,359.46,233.19,359.43z"/>
	<path class="st35" d="M288.34,220.19c-1-4.08-2.92-7.87-3.12-12.23c-0.42-8.87,6.62-12.66,13.59-10.51
		c3.83,1.18,7.33,1.53,11.12,0.08c1.92-0.74,4.13-0.63,6.15-0.07c5.28,1.46,7.49,4.7,6.78,11.27c-0.37,3.41-2.36,6.35-3.48,9.55
		c-0.74,2.11-1.41,4.24-2.11,6.36c-0.58,0.72-1.4,0.86-2.24,0.88c-7.25,0.13-14.31,1.51-21.33,3.2c-2.1,0.56-3.31-0.46-3.99-2.32
		C288.98,224.4,288.53,222.32,288.34,220.19z"/>
	<path class="st33" d="M318.99,336.49c-2.71,4.98-4.93,9.64-10.72,10.15c-5.32,0.47-9.02-2.38-12.06-6.83
		C303.84,339.03,311.18,338.19,318.99,336.49z"/>
	<path class="st36" d="M357.75,319.57c-1.05,5.77-1.55,11.23-7.08,13.74c-4.7,2.13-8.91-0.06-13.4-2.55
		C344.54,327.65,351.19,324.31,357.75,319.57z"/>
	<path class="st37" d="M266.91,334.9c-6.47,5.73-12.89,4.55-16.43-2.78c-1.18-2.45-1.97-5.05-2.5-8.23
		C253.98,328.53,260.12,332.08,266.91,334.9z"/>
	<path class="st38" d="M352.54,217.64c1.3,0.27,1.02,1.32,1.02,2.17c0,6.09-0.02,12.18-0.03,18.28c-1.93-0.55-3.32-2.04-5.06-2.93
		c-0.82-0.42-0.52-1.32-0.52-2.03c-0.01-3.89,0.15-7.79-0.03-11.68c-0.09-2,0.39-3.07,2.48-3.24
		C351.13,218.15,351.83,217.83,352.54,217.64z"/>
	<path class="st36" d="M338.2,189.87c-0.76-4.66-0.66-9.37-0.53-14.06c0.06-2.21-1.38-3.42-2.46-4.92c1.4-0.03,2.83,0.1,4.2-0.11
		c2.46-0.38,3.48,0.6,3.29,3.01c0.03,4.06-0.02,8.13,0.14,12.19c0.07,1.69-0.28,2.65-2.1,2.9
		C339.86,189.01,339.05,189.53,338.2,189.87z"/>
	<path class="st39" d="M81.92,355.84c0.83,0,1.66,0,2.49,0c3.58,0.02,3.58,0.02,2.1,3.42c-0.46,1.06-1.09,2.08-1.37,3.19
		c-0.51,2-1.78,2.36-3.65,2.45c-1.89,0.09-2.13-1.16-2.67-2.33c-0.83-1.81-1.66-3.61-2.51-5.41c-0.46-0.97-0.17-1.38,0.88-1.36
		c1.58,0.02,3.15,0.01,4.73,0.01C81.92,355.82,81.92,355.83,81.92,355.84z"/>
	<path class="st40" d="M81.79,257.64c-1.58,0-3.16-0.07-4.73,0.02c-1.55,0.09-2.04-0.58-1.96-2.06c0.11-2.26,1.34-3.9,3.55-4.08
		c2.14-0.17,4.31-0.13,6.46,0c1.64,0.1,2.73,1.17,3.27,2.68c0.85,2.4,0.18,3.35-2.36,3.4c-1.41,0.03-2.82,0.01-4.23,0.01
		C81.79,257.62,81.79,257.63,81.79,257.64z"/>
	<path class="st41" d="M229.61,304.54c4.01,5.02,7.26,9.74,11.79,13.35c-3.77,2.42-7.65,1.58-9.74-2.1
		C229.8,312.53,229.52,308.94,229.61,304.54z"/>
	<path class="st42" d="M260.19,185.29c-2.48,0-4.97-0.07-7.45,0.03c-1.35,0.05-1.7-0.44-1.68-1.71c0.02-1.2,0.26-1.8,1.65-1.79
		c5.05,0.06,10.1,0.04,15.15-0.02c1.23-0.02,1.59,0.43,1.51,1.6c-0.07,1.02,0.09,1.99-1.48,1.94c-2.56-0.09-5.13-0.02-7.7-0.02
		C260.19,185.3,260.19,185.3,260.19,185.29z"/>
	<path class="st43" d="M342.78,231.98c-2.51-1.09-4.67-2.07-6.87-2.96c-0.87-0.35-1.16-0.76-0.79-1.65
		c1.27-3.03,3.05-5.64,5.96-7.36c1.26-0.74,1.74-0.47,1.72,1.03C342.74,224.58,342.78,228.13,342.78,231.98z"/>
	<path class="st44" d="M82.05,262.57c1.81,0,3.63,0.06,5.44-0.02c1.31-0.06,1.52,0.64,1.44,1.69c-0.07,0.94,0.29,2.09-1.32,2.09
		c-3.79-0.01-7.59,0.02-11.38,0.02c-1.6,0-1.2-1.23-1.27-2.15c-0.08-1,0.04-1.76,1.4-1.7c1.89,0.09,3.79,0.02,5.69,0.02
		C82.05,262.54,82.05,262.55,82.05,262.57z"/>
	<path class="st45" d="M235.31,364.59c1.07,0,2.15-0.06,3.22,0.02c1.01,0.07,2.42-0.55,2.45,1.46c0.03,1.77-0.35,3.3-2.26,3.52
		c-2.29,0.27-4.64,0.33-6.93,0.12c-2.03-0.19-2.13-1.91-2.13-3.59c0-1.88,1.31-1.53,2.42-1.56c1.07-0.03,2.15-0.01,3.22-0.01
		C235.31,364.56,235.31,364.58,235.31,364.59z"/>
	<path class="st46" d="M378.56,185.83c3.06,0.32,7.42,4.7,7.76,8.46c0.08,0.85,0.07,1.46-1.13,1.25c-3.68-0.65-7.8-4.27-8.56-7.77
		C376.46,186.97,375.71,185.44,378.56,185.83z"/>
	<path class="st47" d="M288.34,220.19c1.26,1.69,1.35,3.79,1.94,5.71c0.53,1.7,1.4,2.96,3.42,2.83c-1.32,0.43-2.65,0.87-3.97,1.3
		c-0.9-3.04-2.7-5.74-3.36-8.87C287.4,221.58,288.06,221.27,288.34,220.19z"/>
	<path class="st1" d="M346.66,164.85c-37.93-0.01-75.87-0.02-113.8-0.02c-4.83,0-4.83,0-4.84-4.9c0-16.93-0.03-33.87,0.01-50.8
		c0.02-7.16,5.57-15.94,12.92-17.62c1.24-0.28,2.45-0.38,3.69-0.38c28.3,0,56.61,0,84.91-0.01c0.74,0,1.49-0.05,2.23-0.08
		c8.22,0.95,15.01,8.18,15.12,17.03c0.23,18.62,0.07,37.25,0.05,55.88C346.96,164.26,346.76,164.55,346.66,164.85z"/>
	<path class="st2" d="M241.98,90.54c-3.43-0.16-6.69,0.75-9.98,1.52c-1.74-0.83-3.26-1.13-4.32,1.09c-0.37,0.77-1.06,2.03-2.26,1.18
		c-0.83-0.59-1.03-1.48-0.79-2.78c0.48-2.58,1.79-3.31,4.24-3.72c3.72-0.61,7.31-0.68,10.87,0.5
		C240.76,88.67,242.08,88.94,241.98,90.54z"/>
	<path class="st48" d="M134.24,250.27c0,2.57,0.05,5.15-0.01,7.72c-0.09,4.26-2.33,6.72-6.58,6.84c-5.14,0.16-10.29,0.13-15.44,0.02
		c-3.59-0.07-6.15-2.55-6.25-6.14c-0.15-5.72-0.16-11.46-0.04-17.18c0.08-3.8,2.79-6.34,6.56-6.38c4.98-0.05,9.96-0.06,14.94,0.01
		c4.18,0.06,6.59,2.42,6.76,6.64c0.11,2.82,0.02,5.64,0.02,8.47C134.21,250.27,134.23,250.27,134.24,250.27z"/>
	<path class="st49" d="M134.25,293.7c0,2.74,0.04,5.48-0.01,8.22c-0.08,3.86-2.32,6.27-6.17,6.35c-5.31,0.12-10.63,0.09-15.94,0.01
		c-3.41-0.05-6.07-2.5-6.16-5.93c-0.16-5.89-0.13-11.79,0-17.68c0.07-3.17,2.78-5.74,6.04-5.8c5.39-0.1,10.79-0.11,16.19,0.01
		c3.45,0.08,5.84,2.61,5.96,6.1c0.09,2.9,0.02,5.81,0.02,8.72C134.2,293.7,134.22,293.7,134.25,293.7z"/>
	<path class="st50" d="M134.24,337.39c0,2.57,0.05,5.14-0.01,7.71c-0.1,4.3-2.35,6.63-6.63,6.7c-5.06,0.09-10.12,0.09-15.18,0.02
		c-3.78-0.05-6.34-2.39-6.45-6.15c-0.17-5.63-0.17-11.28-0.04-16.92c0.09-3.76,2.62-6.15,6.39-6.22c5.06-0.09,10.12-0.08,15.18,0
		c4.27,0.06,6.53,2.32,6.69,6.64c0.1,2.73,0.02,5.47,0.02,8.21C134.22,337.39,134.23,337.39,134.24,337.39z"/>
	<path class="st51" d="M197.09,335.24c1.43,3.1,0.59,4.51-2.96,5.01c-10.37-0.03-20.73-0.07-31.1-0.1c-0.66,0-1.34,0.07-1.99-0.05
		c-1.61-0.29-2.48-1.3-2.4-2.95c0.07-1.55,0.96-2.49,2.51-2.55c2.32-0.09,4.64-0.07,6.97-0.07c8.46,0,16.92,0.02,25.38,0.02
		C194.75,334.55,196,334.47,197.09,335.24z"/>
	<path class="st52" d="M178.05,252.7c-5.23,0-10.45-0.01-15.68,0.01c-1.91,0.01-3.56-0.35-3.76-2.65c-0.15-1.85,1.22-2.89,3.76-2.9
		c10.53-0.01,21.07-0.01,31.6,0.02c2.55,0.01,3.92,1.07,3.76,2.93c-0.2,2.3-1.86,2.65-3.76,2.65c-5.31-0.01-10.62,0-15.92,0
		C178.05,252.74,178.05,252.72,178.05,252.7z"/>
	<path class="st49" d="M147.89,298.43c-2.85-0.05-4.77-2.04-4.72-4.9c0.05-2.85,1.99-4.7,4.95-4.7c2.64,0,4.6,2.04,4.61,4.79
		C152.73,296.44,150.67,298.48,147.89,298.43z"/>
	<path class="st53" d="M143.16,337.23c-0.02-2.77,2.08-4.92,4.8-4.92c2.62,0.01,4.83,2.3,4.8,4.98c-0.03,2.58-2.2,4.78-4.72,4.79
		C145.29,342.1,143.19,340.01,143.16,337.23z"/>
	<path class="st54" d="M143.19,249.88c0.05-2.85,2.14-4.9,4.89-4.81c2.62,0.08,4.64,2.2,4.64,4.86c0,2.79-2.14,4.85-4.93,4.75
		C145.02,254.58,143.14,252.62,143.19,249.88z"/>
	<path class="st55" d="M272.45,269.64c0.02-5.52,3.86-11.07,8.47-12.26c3.22-0.83,5.98,0.47,7.36,3.49
		c1.89,4.13,0.61,10.63-2.88,14.1c-2.35,2.34-5.07,3.84-8.51,2.62C274.12,276.6,272.44,273.46,272.45,269.64z"/>
	<path class="st56" d="M313.79,271.78c0.14,3.57-1.45,7.13-4.51,9.96c-2.04,1.88-4.49,2.89-7.31,1.87
		c-2.84-1.03-3.97-3.38-4.24-6.18c-0.39-4.18,0.22-8.11,3.21-11.34c2.55-2.76,6.05-3.9,8.67-2.75
		C313.02,264.83,313.81,267.77,313.79,271.78z"/>
	<path class="st57" d="M378.4,203.29c0.93-0.07,1.64,0.27,1.93,1.18c0.26,0.83-0.09,1.53-0.84,1.84c-1.97,0.83-3.21,2.16-3.63,4.32
		c-0.17,0.89-1.04,1.28-1.95,1.13c-0.97-0.16-1.27-0.92-1.36-1.81C372.24,207.2,375.62,203.34,378.4,203.29z"/>
	<path class="st58" d="M295.24,198.22c1.47,0.04,2.85,0.16,4.32,0.72c2.88,1.11,5.94,1.3,8.97,0.17c4.92-1.84,9.16-0.98,11.71,2.47
		c2.57,3.49,1.67,7.33,0.44,10.93c-1.03,3.03-2.79,5.79-3.67,8.92c-0.85,3.04-3.61,2.89-5.88,3.11c-5.6,0.55-11.15,1.3-16.58,2.77
		c-1.32,0.36-2.33,0.04-2.64-1.08c-1.8-6.4-5.62-12.21-5.6-19.14C286.34,201.35,289.48,198.21,295.24,198.22z"/>
	<path class="st59" d="M235.82,138.2c0-4.65,0.06-9.29-0.03-13.94c-0.04-1.91,0.43-3.44,2.44-3.69c2.21-0.28,3.06,1.28,3.28,3.22
		c1.1,9.69,1.08,19.38,0.06,29.07c-0.2,1.91-1.07,3.25-3.13,3.05c-2-0.19-2.75-1.6-2.67-3.53c0.22-4.72,0.42-9.45,0.63-14.17
		C236.22,138.21,236.02,138.21,235.82,138.2z"/>
	<path class="st1" d="M128.86,250.01c0,2.4-0.05,4.81,0.02,7.21c0.04,1.32-0.3,1.99-1.78,1.97c-4.64-0.05-9.28-0.03-13.92,0.01
		c-1.25,0.01-1.78-0.42-1.77-1.73c0.04-5.05,0.02-10.11-0.03-15.16c-0.01-1.24,0.57-1.56,1.66-1.55c4.72,0.03,9.45,0.05,14.17,0.01
		c1.34-0.01,1.71,0.55,1.68,1.79c-0.06,2.48-0.02,4.97-0.02,7.46C128.87,250.01,128.86,250.01,128.86,250.01z"/>
	<path class="st1" d="M128.85,293.44c0,2.49-0.05,4.98,0.02,7.47c0.04,1.39-0.49,1.91-1.89,1.89c-4.56-0.06-9.13-0.04-13.69-0.01
		c-1.39,0.01-1.89-0.58-1.88-1.95c0.04-4.9,0.04-9.79-0.02-14.69c-0.02-1.32,0.48-1.73,1.75-1.72c4.65,0.03,9.29,0.03,13.94-0.06
		c1.41-0.03,1.91,0.44,1.86,1.85c-0.09,2.4-0.02,4.81-0.02,7.22C128.89,293.44,128.87,293.44,128.85,293.44z"/>
	<path class="st1" d="M128.92,337.33c0,2.4-0.06,4.81,0.02,7.21c0.05,1.31-0.43,1.75-1.72,1.73c-4.64-0.05-9.29-0.05-13.93,0
		c-1.36,0.02-1.93-0.39-1.92-1.84c0.06-4.89,0.05-9.78-0.01-14.67c-0.02-1.39,0.42-1.92,1.84-1.9c4.56,0.06,9.12,0.07,13.68,0.01
		c1.48-0.02,2.09,0.44,2.02,1.99c-0.1,2.48-0.03,4.97-0.03,7.46C128.9,337.33,128.91,337.33,128.92,337.33z"/>
	<path class="st60" d="M287.19,263.47c-0.24,1.79-0.98,3.11-2.97,3c-1.85-0.1-2.6-1.43-2.56-3.06c0.04-1.61,0.79-3,2.66-2.98
		C286.23,260.45,287.09,261.68,287.19,263.47z"/>
	<path class="st61" d="M309.58,272.06c-2.28,0.02-3.15-1.1-3.16-2.79c-0.02-1.65,0.8-2.95,2.63-2.97c1.75-0.02,2.74,1.06,2.78,2.82
		C311.85,270.86,310.9,271.84,309.58,272.06z"/>
</g>
</svg>
